<svg version="1.1" viewBox="0.0 0.0 256.0 256.0" fill="none" stroke="none" stroke-linecap="square" stroke-miterlimit="10" xmlns:xlink="http://www.w3.org/1999/xlink" xmlns="http://www.w3.org/2000/svg"><clipPath id="p.0"><path d="m0 0l256.0 0l0 256.0l-256.0 0l0 -256.0z" clip-rule="nonzero"/></clipPath><g clip-path="url(#p.0)"><path fill="#000000" fill-opacity="0.0" d="m0 0l256.0 0l0 256.0l-256.0 0z" fill-rule="evenodd"/><path fill="#000000" fill-opacity="0.0" d="m924.81415 334.49484l183.46454 0l0 234.9921l-183.46454 0z" fill-rule="evenodd"/><path fill="#6415ff" d="m0.088283986 42.76997l0 0c0 -23.53563 19.079397 -42.615025 42.615025 -42.615025l170.58098 0l0 0c11.3022 0 22.141495 4.4897847 30.133362 12.481652c7.9918823 7.991867 12.481659 18.831165 12.481659 30.133373l0 170.45499c0 23.53563 -19.079391 42.61502 -42.61502 42.61502l-170.58098 0c-23.535627 0 -42.615025 -19.079391 -42.615025 -42.61502z" fill-rule="evenodd"/><path fill="#ffffff" d="m73.31018 187.99747l0 -121.203125l32.90625 0l0 47.34375l43.5625 0l0 -47.34375l32.90625 0l0 121.203125l-32.90625 0l0 -47.34375l-43.5625 0l0 47.34375l-32.90625 0z" fill-rule="nonzero"/></g></svg>