<svg version="1.1" viewBox="0.0 0.0 509.9265091863517 511.70603674540683" fill="none" stroke="none" stroke-linecap="square" stroke-miterlimit="10" xmlns:xlink="http://www.w3.org/1999/xlink" xmlns="http://www.w3.org/2000/svg"><clipPath id="p.0"><path d="m0 0l509.9265 0l0 511.70602l-509.9265 0l0 -511.70602z" clip-rule="nonzero"/></clipPath><g clip-path="url(#p.0)"><path fill="#000000" fill-opacity="0.0" d="m0 0l509.9265 0l0 511.70602l-509.9265 0z" fill-rule="evenodd"/><path fill="#000000" fill-opacity="0.0" d="m1842.1377 668.6056l365.41724 0l0 469.7323l-365.41724 0z" fill-rule="evenodd"/><path fill="#ffffff" d="m0.17585301 85.24055l0 0c0 -46.906006 38.02483 -84.93084 84.93083 -84.93084l339.71313 0l0 0c22.525055 0 44.127533 8.948044 60.055176 24.875666c15.927612 15.927618 24.875671 37.530106 24.875671 60.05517l0 341.22495c0 46.906006 -38.02484 84.93085 -84.93085 84.93085l-339.71313 0l0 0c-46.906 0 -84.93083 -38.02484 -84.93083 -84.93085z" fill-rule="evenodd"/><path fill="#6415ff" d="m145.59023 375.853l0 -242.42186l65.812485 0l0 94.703125l87.125 0l0 -94.703125l65.8125 0l0 242.42186l-65.8125 0l0 -94.703125l-87.125 0l0 94.703125l-65.812485 0z" fill-rule="nonzero"/></g></svg>