<svg version="1.1" viewBox="0.0 0.0 128.0 128.0" fill="none" stroke="none" stroke-linecap="square" stroke-miterlimit="10" xmlns:xlink="http://www.w3.org/1999/xlink" xmlns="http://www.w3.org/2000/svg"><clipPath id="p.0"><path d="m0 0l128.0 0l0 128.0l-128.0 0l0 -128.0z" clip-rule="nonzero"/></clipPath><g clip-path="url(#p.0)"><path fill="#000000" fill-opacity="0.0" d="m0 0l128.0 0l0 128.0l-128.0 0z" fill-rule="evenodd"/><path fill="#000000" fill-opacity="0.0" d="m462.40707 167.24742l91.74802 0l0 117.4803l-91.74802 0z" fill-rule="evenodd"/><path fill="#6415ff" d="m0.044141993 21.384985l0 0c0 -11.767814 9.539699 -21.307512 21.307512 -21.307512l85.29049 0l0 0c5.6511 0 11.070747 2.2448921 15.066681 6.240826c3.9959412 3.9959335 6.2408295 9.415583 6.2408295 15.066687l0 85.22749c0 11.767815 -9.539696 21.30751 -21.30751 21.30751l-85.29049 0c-11.767814 0 -21.307512 -9.539696 -21.307512 -21.30751z" fill-rule="evenodd"/><path fill="#ffffff" d="m36.434444 94.13873l0 -61.09375l16.578125 0l0 23.859375l21.968746 0l0 -23.859375l16.578125 0l0 61.09375l-16.578125 0l0 -23.859375l-21.968746 0l0 23.859375l-16.578125 0z" fill-rule="nonzero"/></g></svg>